<svg xmlns="http://www.w3.org/2000/svg" width="275" height="257" viewBox="0 0 275 257" version="1.1"><path d="M 22 35.329 C 22 35.651, 25.252 38.509, 29.226 41.681 C 33.201 44.852, 39.340 50.063, 42.869 53.261 C 55.687 64.877, 92.742 94.591, 93.485 93.849 C 97.897 89.437, 99.707 81.419, 97.049 78.066 C 87.402 65.900, 69.521 51.218, 56.226 44.545 C 46.237 39.532, 22 33.005, 22 35.329 M 131.914 35.904 C 124.498 38.299, 120.011 45.406, 121.730 52.036 C 123.165 57.577, 150.976 57.387, 152.293 51.827 C 154.709 41.621, 142.867 32.368, 131.914 35.904 M 244.500 36.506 C 230.317 39.190, 216.055 45.271, 204 53.774 C 194.505 60.471, 176.667 78.743, 177.571 80.846 C 177.962 81.756, 179.252 85.086, 180.439 88.248 C 182.595 93.995, 182.595 93.995, 191.548 86.720 C 236.539 50.161, 253.116 37, 254.172 37 C 254.627 37, 255 36.550, 255 36 C 255 34.755, 253.322 34.836, 244.500 36.506 M 10.390 41.584 C 8.893 47.548, 16.486 72, 19.836 72 C 20.934 72, 45.427 67.877, 45.670 67.651 C 45.874 67.462, 15.532 42.063, 12.893 40.213 C 11.271 39.077, 10.979 39.237, 10.390 41.584 M 254.880 46.808 C 229.280 67.347, 229.251 67.377, 233.579 68.286 C 235.736 68.738, 241.410 70.028, 246.189 71.151 C 257.337 73.772, 258.110 73.146, 262.887 57.645 C 268.138 40.607, 266.080 37.822, 254.880 46.808 M 118.488 70.444 C 113.294 75.951, 113.744 76.577, 123.818 77.869 C 136.492 79.495, 158.657 78.676, 160.830 76.503 C 164.588 72.745, 154.603 68.508, 141.894 68.466 C 134.527 68.442, 127.032 68.045, 125.238 67.584 C 122.283 66.824, 121.648 67.093, 118.488 70.444 M 41.310 78.488 C 22.112 82.172, 22.215 81.978, 34.251 91.700 C 46.664 101.726, 59.136 105.915, 77.664 106.280 C 93.990 106.602, 94.245 107.214, 69.633 87 C 54.843 74.852, 56.952 75.486, 41.310 78.488 M 211 82.129 C 180.994 106.359, 180.284 107.619, 197.250 106.545 C 218.212 105.218, 229.013 101.450, 241.124 91.241 C 251.685 82.339, 251.999 82.916, 234.497 79.071 C 217.312 75.295, 219.876 74.962, 211 82.129 M 103.539 97.182 C 101.482 104.107, 101.551 107.735, 103.750 108.372 C 117.308 112.296, 153.110 112.312, 172.250 108.403 C 175.473 107.744, 175.678 106.135, 173.551 98.147 C 171.730 91.303, 172.742 91.709, 161.890 93.469 C 149.948 95.406, 130.344 95.417, 117.587 93.494 C 112.135 92.672, 107.090 92, 106.376 92 C 105.662 92, 104.385 94.332, 103.539 97.182 M 103.024 126.119 C 103.252 139.485, 111.255 143.294, 139.082 143.280 C 166.005 143.267, 167.866 142.525, 171.944 130.171 C 173.677 124.920, 173.491 124.767, 166.912 126.026 C 153.560 128.582, 124.200 128.257, 106.750 125.361 C 103.921 124.891, 103.006 125.078, 103.024 126.119" stroke="none" fill="#e8d6b5" fill-rule="evenodd"/><path d="M 166.214 2.023 C 164.957 2.539, 163.157 4.318, 162.214 5.975 C 161.271 7.632, 159.791 8.990, 158.924 8.994 C 156.735 9.002, 153.732 12.453, 149.780 19.500 C 147.635 23.323, 145.795 25.470, 144.707 25.417 C 143.768 25.371, 139.664 25.258, 135.586 25.167 C 128.172 25, 128.172 25, 124.571 18.561 C 121.224 12.576, 116.990 8, 114.801 8 C 114.289 8, 112.735 6.650, 111.347 5 C 106.325 -0.968, 98 2.042, 98 9.826 C 98 16.845, 104.586 20.130, 111.030 16.323 C 114.362 14.355, 115.809 15.152, 119.490 20.985 C 123.556 27.429, 123.566 28.748, 119.579 32.620 C 113.421 38.601, 111.639 43.234, 111.545 53.500 C 111.380 71.647, 106.741 74.099, 95.072 62.205 C 54.551 20.908, 1.007 11.439, 1.002 45.568 C 0.995 85.319, 43.408 120.477, 86.943 116.807 C 90.385 116.517, 90.385 116.517, 91.655 123.394 C 94.210 137.242, 105.456 154.431, 116.057 160.693 C 119.890 162.957, 119.910 162.817, 113.503 178.255 C 110.479 185.540, 108.004 191.790, 108.003 192.145 C 108.001 192.499, 114.959 193.116, 123.464 193.514 C 138.927 194.239, 138.927 194.239, 137.580 197.369 C 128.839 217.680, 113 255.670, 113 256.323 C 113 258.218, 115.427 255.954, 125.221 244.919 C 130.874 238.549, 145.625 222.193, 158 208.573 C 187.161 176.479, 194.951 167.668, 194.978 166.750 C 194.990 166.338, 186.675 166, 176.500 166 C 166.325 166, 158 165.735, 158 165.411 C 158 165.087, 161.854 160.699, 166.565 155.661 C 176.541 144.990, 182.317 134.535, 184.333 123.500 C 185.612 116.500, 185.612 116.500, 198.556 115.898 C 241.833 113.887, 278.979 77.247, 274.666 40.826 C 271.376 13.052, 219.677 24.234, 181.688 60.935 C 168.416 73.758, 161.109 70.702, 161.850 52.639 C 162.257 42.742, 160.519 37.834, 154.568 32.066 C 148.922 26.594, 157.734 11.286, 163.788 16.048 C 169.146 20.263, 176.579 17.512, 177.633 10.925 C 178.619 4.765, 172.035 -0.369, 166.214 2.023 M 22 35.329 C 22 35.651, 25.252 38.509, 29.226 41.681 C 33.201 44.852, 39.340 50.063, 42.869 53.261 C 55.687 64.877, 92.742 94.591, 93.485 93.849 C 97.897 89.437, 99.707 81.419, 97.049 78.066 C 87.402 65.900, 69.521 51.218, 56.226 44.545 C 46.237 39.532, 22 33.005, 22 35.329 M 131.914 35.904 C 124.498 38.299, 120.011 45.406, 121.730 52.036 C 123.165 57.577, 150.976 57.387, 152.293 51.827 C 154.709 41.621, 142.867 32.368, 131.914 35.904 M 244.500 36.506 C 230.317 39.190, 216.055 45.271, 204 53.774 C 194.505 60.471, 176.667 78.743, 177.571 80.846 C 177.962 81.756, 179.252 85.086, 180.439 88.248 C 182.595 93.995, 182.595 93.995, 191.548 86.720 C 236.539 50.161, 253.116 37, 254.172 37 C 254.627 37, 255 36.550, 255 36 C 255 34.755, 253.322 34.836, 244.500 36.506 M 10.390 41.584 C 8.893 47.548, 16.486 72, 19.836 72 C 20.934 72, 45.427 67.877, 45.670 67.651 C 45.874 67.462, 15.532 42.063, 12.893 40.213 C 11.271 39.077, 10.979 39.237, 10.390 41.584 M 254.880 46.808 C 229.280 67.347, 229.251 67.377, 233.579 68.286 C 235.736 68.738, 241.410 70.028, 246.189 71.151 C 257.337 73.772, 258.110 73.146, 262.887 57.645 C 268.138 40.607, 266.080 37.822, 254.880 46.808 M 118.488 70.444 C 113.294 75.951, 113.744 76.577, 123.818 77.869 C 136.492 79.495, 158.657 78.676, 160.830 76.503 C 164.588 72.745, 154.603 68.508, 141.894 68.466 C 134.527 68.442, 127.032 68.045, 125.238 67.584 C 122.283 66.824, 121.648 67.093, 118.488 70.444 M 41.310 78.488 C 22.112 82.172, 22.215 81.978, 34.251 91.700 C 46.664 101.726, 59.136 105.915, 77.664 106.280 C 93.990 106.602, 94.245 107.214, 69.633 87 C 54.843 74.852, 56.952 75.486, 41.310 78.488 M 211 82.129 C 180.994 106.359, 180.284 107.619, 197.250 106.545 C 218.212 105.218, 229.013 101.450, 241.124 91.241 C 251.685 82.339, 251.999 82.916, 234.497 79.071 C 217.312 75.295, 219.876 74.962, 211 82.129 M 103.539 97.182 C 101.482 104.107, 101.551 107.735, 103.750 108.372 C 117.308 112.296, 153.110 112.312, 172.250 108.403 C 175.473 107.744, 175.678 106.135, 173.551 98.147 C 171.730 91.303, 172.742 91.709, 161.890 93.469 C 149.948 95.406, 130.344 95.417, 117.587 93.494 C 112.135 92.672, 107.090 92, 106.376 92 C 105.662 92, 104.385 94.332, 103.539 97.182 M 103.024 126.119 C 103.252 139.485, 111.255 143.294, 139.082 143.280 C 166.005 143.267, 167.866 142.525, 171.944 130.171 C 173.677 124.920, 173.491 124.767, 166.912 126.026 C 153.560 128.582, 124.200 128.257, 106.750 125.361 C 103.921 124.891, 103.006 125.078, 103.024 126.119" stroke="none" fill="#0d0b0b" fill-rule="evenodd"/></svg>